PathFileType	4	(X/Y/Z)	c:\Git\powerlifing_model_clean\simulations\HC835B\Session1\HC835B_OGW_0001\marker_experimental.trc
DataRate	CameraRate	NumFrames	NumMarkers	Units	OrigDataRate	OrigDataStartFrame	OrigNumFrames
240.000000	240.000000	5	38	mm	240.000000	0	433
Frame#	Time	RPSI			LPSI			RASI			LASI			RTH1			RTH2			RTH3			RTH4			RSK1			RSK2			RSK3			RSK4			RCAL1			RCAL2			RCAL3			RST			RPT			RTN			RFMB			RSMB			RVMB			RFMH			RSMH			RVMH			RPM			LTH1			LTH2			LTH3			LTH4			LSK1			LSK2			LSK3			LSK4			LCAL1			LCAL2			LCAL3			LFMH			LVMH			
		X1	Y1	Z1	X2	Y2	Z2	X3	Y3	Z3	X4	Y4	Z4	X5	Y5	Z5	X6	Y6	Z6	X7	Y7	Z7	X8	Y8	Z8	X9	Y9	Z9	X10	Y10	Z10	X11	Y11	Z11	X12	Y12	Z12	X13	Y13	Z13	X14	Y14	Z14	X15	Y15	Z15	X16	Y16	Z16	X17	Y17	Z17	X18	Y18	Z18	X19	Y19	Z19	X20	Y20	Z20	X21	Y21	Z21	X22	Y22	Z22	X23	Y23	Z23	X24	Y24	Z24	X25	Y25	Z25	X26	Y26	Z26	X27	Y27	Z27	X28	Y28	Z28	X29	Y29	Z29	X30	Y30	Z30	X31	Y31	Z31	X32	Y32	Z32	X33	Y33	Z33	X34	Y34	Z34	X35	Y35	Z35	X36	Y36	Z36	X37	Y37	Z37	X38	Y38	Z38	

1	0	480.1666870117189	1107.599609375	-2505.66552734375	590.5225830078126	1114.659423828125	-2511.394287109375	437.7304992675782	1067.133911132813	-2295.304931640625	680.8278198242189	1062.453125	-2310.609130859375	358.8012695312501	803.4510498046877	-2278.68359375	368.7067565917969	817.4633789062502	-2220.082763671875	367.3699951171876	738.8926391601564	-2224.692138671875	388.049041748047	750.2752685546876	-2170.710693359375	409.4721679687501	298.5834655761719	-2148.876220703125	399.9456176757814	303.7993774414063	-2087.1279296875	411.7468261718751	250.2755889892579	-2115.3505859375	414.8323974609376	256.6050720214844	-2055.4443359375	477.979949951172	91.88682556152345	-2111.937255859375	512.1051635742189	64.1771697998047	-2088.353515625	450.2833862304689	53.02021408081056	-2099.695556640625	513.3527221679689	102.1151504516602	-2029.734741210938	415.6957092285157	77.01534271240236	-2050.396728515625	486.1242980957032	132.504867553711	-1983.770751953125	480.1443176269532	125.6219558715821	-1947.873657226563	428.9515380859376	143.2564239501953	-1952.258911132813	401.7206420898439	63.83775329589845	-2001.672729492188	479.2509155273439	111.4211349487305	-1888.274536132813	422.196746826172	124.2932586669922	-1887.413330078125	377.6445007324219	76.61718750000001	-1926.887573242188	423.441619873047	135.2383575439453	-1831.837768554688	729.5023803710939	803.0379638671877	-2462.634521484375	722.0573120117189	778.0257568359377	-2407.464111328125	716.3353271484376	717.9204101562501	-2462.60009765625	694.7739257812501	696.3396606445314	-2409.44287109375	657.4059448242189	297.9888916015626	-2663.82470703125	666.6417236328126	267.8539123535157	-2620.70654296875	653.5851440429689	240.9634246826172	-2661.359130859375	647.1149291992189	212.5250091552735	-2612.765625	588.2827758789064	100.0196228027344	-2746.89013671875	616.7095336914064	62.29404067993165	-2751.504638671875	559.2199096679689	61.34811401367189	-2744.98974609375	570.4580078125001	48.61191177368165	-2521.552734375	671.5487060546876	25.313627243042	-2569.212158203125	
2	0.004166666666666667	479.710906982422	1105.797607421875	-2498.328857421875	589.9674682617189	1113.079833984375	-2504.210693359375	437.4230957031251	1065.433959960938	-2287.778076171875	681.2185668945314	1060.703002929688	-2304.45556640625	359.1738586425782	800.371276855469	-2273.4580078125	369.4047546386719	813.9458618164065	-2214.71240234375	368.1205444335938	735.4139404296876	-2220.027099609375	389.1002807617189	746.3129882812501	-2166.091796875	410.3871459960939	296.4512939453126	-2136.70068359375	400.7095031738282	303.3093261718751	-2075.037841796875	412.4377441406251	249.0298156738282	-2101.857177734375	415.8056030273439	257.1385192871094	-2042.032348632813	479.1710815429689	90.4015579223633	-2094.26611328125	512.9078369140626	62.96643447875978	-2069.748046875	451.0258789062501	51.65438842773439	-2081.03662109375	514.3011474609376	102.8693466186524	-2012.435424804688	416.4495544433595	77.30850219726564	-2032.568603515625	486.8041076660157	134.30419921875	-1967.166870117188	480.9754943847657	127.9190673828125	-1931.807861328125	429.5368957519532	146.0651092529297	-1936.309814453125	402.1699523925782	65.5083465576172	-1983.574584960938	479.4713745117189	115.8678436279297	-1871.147094726563	422.4571838378907	128.9625854492188	-1870.871704101563	377.8505249023438	80.4767532348633	-1909.241577148438	423.5872802734376	141.4602508544922	-1815.683715820313	729.4340209960939	802.4751586914065	-2457.251708984375	722.3002319335939	777.2498168945315	-2402.220458984375	716.5738525390626	717.5496826171876	-2457.533203125	695.0901489257814	695.5140380859376	-2404.448974609375	657.4782104492189	298.6471252441407	-2661.709716796875	666.7916870117189	268.2238159179688	-2618.810546875	653.7250366210939	241.6052246093751	-2659.664794921875	647.3757934570314	212.8172454833985	-2611.314697265625	588.4658203125001	101.1787261962891	-2746.264404296875	616.8081665039064	63.34149551391603	-2751.0927734375	559.2899780273439	62.44870758056642	-2744.60302734375	570.6391601562501	48.54468154907228	-2521.205078125	671.6403808593751	25.20439529418946	-2569.14208984375	
3	0.008333333333333333	479.3086242675782	1104.022094726563	-2490.979248046875	589.4141845703126	1111.4736328125	-2497.0087890625	437.2305297851564	1063.662963867188	-2280.38916015625	681.2934570312501	1059.166137695313	-2297.364013671875	359.2258605957032	797.5472412109377	-2267.994873046875	370.0001831054688	810.4290161132815	-2209.2900390625	368.5705566406251	731.9769287109376	-2215.269287109375	390.1467895507814	742.3635253906251	-2161.506591796875	411.3137207031251	294.4320373535157	-2124.739013671875	401.402557373047	303.1449279785157	-2062.853515625	413.1978149414064	248.204330444336	-2088.563720703125	416.9957275390626	256.9913940429688	-2029.47314453125	480.2175598144532	88.85906982421876	-2077.1640625	513.8759155273439	62.15773391723634	-2051.821533203125	451.9302368164064	50.62951660156251	-2062.907958984375	515.1762695312501	103.5366744995117	-1995.48876953125	417.3160400390626	77.6241912841797	-2015.288330078125	487.7378234863282	136.2737579345703	-1951.251342773438	481.5111694335939	130.5187530517578	-1915.76953125	430.3284301757814	148.9046478271485	-1920.976806640625	402.8282470703126	67.38442230224611	-1966.067993164063	479.9523925781251	120.3800354003907	-1854.721923828125	423.0143432617189	133.692611694336	-1855.006591796875	378.2781066894532	84.28319549560548	-1892.319580078125	423.9981689453126	147.6495666503907	-1800.206420898438	729.3161010742189	802.038024902344	-2451.804931640625	722.5390014648439	776.342224121094	-2396.916259765625	716.6112670898439	717.0250244140626	-2452.571533203125	695.5544433593751	694.6152343750001	-2399.54443359375	657.6495971679689	299.4057617187501	-2659.47216796875	666.9313964843751	268.5794982910157	-2616.8935546875	653.9167480468751	242.2577209472657	-2657.90771484375	647.5563354492189	213.0491485595704	-2609.7353515625	588.7762451171876	102.9094619750977	-2745.97412109375	616.9716186523439	64.48922729492189	-2750.685546875	559.4797973632814	63.67215728759767	-2744.23486328125	570.8359985351564	48.45257949829103	-2520.8974609375	671.6738281250001	25.10966873168946	-2569.048095703125	
4	0.0125	478.9488525390626	1102.19677734375	-2483.57421875	588.8799438476564	1109.808959960938	-2489.753662109375	437.0309448242189	1062.052490234375	-2272.892333984375	681.3237304687501	1057.62255859375	-2290.115966796875	359.0838012695313	794.6400146484377	-2262.488037109375	370.6072387695313	807.0101318359377	-2203.6826171875	368.8294982910157	728.6126708984376	-2210.57080078125	391.0234375000001	738.4304199218751	-2156.78955078125	411.9858398437501	292.5478515625001	-2112.918212890625	402.2424316406251	302.5883789062501	-2051.2216796875	414.651092529297	246.7715606689454	-2076.32177734375	418.1087646484376	257.1445312500001	-2017.034301757813	481.4112854003907	87.54164886474611	-2060.59765625	514.9651489257814	61.38306045532228	-2034.41455078125	453.046112060547	49.84258270263673	-2045.456298828125	516.3112182617189	104.3514404296875	-1979.2685546875	418.4099731445314	78.30974578857423	-1998.60595703125	488.7578430175782	138.1653594970703	-1935.82763671875	482.640350341797	133.4755096435547	-1900.4375	431.3503723144532	151.7626342773438	-1906.110961914063	403.6746215820314	69.23313903808595	-1949.178344726563	480.6988525390626	124.8648452758789	-1839.022705078125	423.8384704589845	138.3951110839844	-1839.790283203125	378.9957580566407	88.18700408935548	-1875.940185546875	424.7801818847657	153.7989196777344	-1785.437744140625	729.1675415039064	801.5293579101565	-2446.264404296875	722.8598022460939	775.5712890625002	-2391.523193359375	716.4230346679689	716.9623413085939	-2447.472900390625	696.0582275390626	693.1412963867189	-2395.05078125	657.8389282226564	300.1190490722657	-2657.14208984375	667.1411743164064	268.9618835449219	-2614.808837890625	654.0577392578126	243.0126342773438	-2656.01123046875	647.8311767578126	213.3559875488282	-2608.134521484375	589.0231323242189	104.2428054809571	-2745.3359375	617.1804809570314	65.71573638916017	-2750.24658203125	559.6942749023439	65.08379364013673	-2743.853271484375	571.0310058593751	48.42139053344728	-2520.581787109375	671.7974243164064	25.06029891967774	-2568.964111328125	
5	0.01666666666666667	478.5957336425782	1100.432495117188	-2476.1806640625	588.4299316406251	1108.100463867188	-2482.43701171875	436.8225402832032	1060.546875	-2265.311279296875	681.3814697265626	1056.109252929688	-2282.81884765625	358.7949829101563	791.9633789062502	-2256.84033203125	371.0779724121094	803.7091064453127	-2198.0205078125	369.1605529785157	725.1443481445314	-2205.9814453125	391.8545532226564	734.5274047851564	-2152.106689453125	412.9838867187501	290.9290771484376	-2101.429443359375	402.907928466797	302.3175048828126	-2040.112182617188	415.849090576172	245.6651000976563	-2064.076416015625	418.2158508300782	257.9426269531251	-2004.236206054688	482.801239013672	86.35653686523439	-2044.599609375	516.4133911132814	60.89247894287111	-2017.663940429688	454.358123779297	49.24085235595705	-2028.567993164063	515.7416992187501	103.7364196777344	-1961.392822265625	419.6858825683595	78.89912414550783	-1982.520751953125	490.8061828613282	140.8223114013672	-1920.589111328125	483.7926025390626	136.3850402832032	-1885.61669921875	432.4159240722657	154.6638641357422	-1892.069091796875	404.8089294433595	70.94502258300783	-1932.933471679688	481.6250000000001	129.2281341552735	-1823.999145507813	424.7854003906251	142.7911529541016	-1825.237182617188	379.9550476074219	91.95748138427736	-1860.19775390625	425.6795349121095	159.6622619628907	-1771.3173828125	729.1447753906251	800.9793090820315	-2440.683837890625	723.1361694335939	774.7167968750002	-2386.054443359375	716.5010375976564	716.4446411132814	-2442.26953125	696.6433715820314	692.0249023437501	-2389.95166015625	658.0697631835939	300.9241333007813	-2654.74609375	667.3685302734376	269.3261108398438	-2612.66845703125	655.4829711914064	244.506332397461	-2654.537353515625	648.1557006835939	213.6159973144532	-2606.5087890625	589.1541748046876	105.3239822387696	-2744.356201171875	617.4219360351564	66.9746780395508	-2749.811767578125	559.9218750000001	66.44583129882814	-2743.328369140625	571.2055053710939	48.29647827148439	-2520.31201171875	671.8762207031251	24.97708892822266	-2568.851806640625	
